<!--Created with Inkscape (http://www.inkscape.org/)-->
<svg xmlns="http://www.w3.org/2000/svg" xml:space="preserve" id="svg5" version="1.1" viewBox="0 0 162 87.9">
  <title id="title3019">runners</title>
  <g id="layer2" stroke="#000" stroke-dasharray="none" stroke-opacity="1" stroke-width="2.7" display="inline" transform="matrix(1.00551 0 0 1.00551 -20.7 -94.3)">
    <g id="g3015" fill="none" stroke-dasharray="none" stroke-linejoin="round" stroke-width="2.7">
      <path id="path1903" stroke-linecap="round" d="M21.9 178.2v-7.6l12.2-7.8 13.2-13.4 3.1-23.4"/>
      <path id="path1905" stroke-linecap="round" d="M39.8 142.6v-9.5l10.4-3.8"/>
      <path id="path1907" stroke-linecap="round" d="m49.4 139 13.6-1.6 1-2.4"/>
      <path id="path1909" stroke-linecap="round" d="m48.6 149.3 10 6-6 14.8 5.5 3"/>
      <path id="path1967" stroke-linecap="butt" d="M45.4 121.2a20 20 0 0 0 1.8 2.3l.6.3v.2l.8.6c.5.2 3.2.4 4 .2l.2-.2h.8l1.3-.8.6-.1c.4-.3.7-.9 1-1.2.3-.1.5-.1.6-.4v-.3l.4-.6v-.3c.1-.1.3 0 .4-.2l.4-2c-.4-.9.3-.3.3-.5v-.3l.6-1c.2-.3.2-.7.3-1 .1-.2 0-3.4-.2-3.6h-.1l-.2-.2c-.1-.2-.2-.5-.4-.6l-.7-.2v-.2c-.4-.8 0 .3-.4-.1-.1-.1 0-.3-.2-.4l-1.3-.7-.7-.8h-3.4l-.2.2c-.4.1-1-.2-1.4 0l-1.1.4h-.6l-1 .7a9.6 9.6 0 0 0-3.4 2.4l-.4.7c0 .1-.3 0-.3.2-.5.6-.6 1.6-.6 2.4 0 .8.3.6.5 1.2.2.3-.2 0 .2.4.2 0 .3 0 .4.2v.2c.4.4 0-.6.4.2v.4l.3.5c.4.8 0-.2.3.2v.2c.4 1 .4 0 .4 1.6z"/>
    </g>
    <g id="g3008" fill="none" stroke-dasharray="none" stroke-linejoin="round" stroke-width="2.7">
      <path id="path1971" stroke-linecap="round" d="m74 148.4 3.7-4.6 12.3 9.1 6-9 7.7-25.6"/>
      <path id="path1973" stroke-linecap="round" d="m96.7 144.6 11.3 7.2-6.5 19.4 7.1 2.5"/>
      <path id="path1975" stroke-linecap="round" d="m102.2 123.2-13.8 7.2 15 9.4"/>
      <path id="path1977" stroke-linecap="round" d="m116 133.5-4.4 2.3-9-12"/>
      <path id="path1979" stroke-linecap="butt" d="M99 113.2c.1 1 .4 1.4 1 2.2.2.3.2.7.3 1 .2.3.6.2.8.6v.3c.2 0 .6-.1.8 0 .8.4 1.5.5 2.4.5l1.7-.2.2-.3h.5c.4-.2.7-.5 1.1-.6h.4c.3.1.3-.3.6-.4h.3c.2 0 .4-.2.5-.3h.4c.2 0 .2-.3.4-.4 0 0 .3.1.4 0 .2-.2 0-.7 0-1l.5-.3v-.2h.2c.4-.4-.6 0 .1-.4h.2v-.3c.1-.2.6-.4.7-.7l.5-1.5v-.3c.4-.8.7-2.4.2-3.4-.1-.3 0-1.3 0-1.6l-.3-1.7v-.6h-.2v-.3l-.4-.6c-.2-.2-.7-.1-1-.3-.2 0-.2-.3-.4-.3l-1.3-.7c-1-.5-3.8-1-5-.8l-.6.2-.2.2c-.5.2-1 .1-1.5.4v.2l-.6.2c-.3.1 0 .3-.3.5h-.2v.4h-.2c-.8.7 0 0-.2.6l-.8 1-.3 1h-.2l-.2 1.3c-.1.7-.7 3.2-.4 3.8.4.7.3 2 .2 2.8z"/>
    </g>
    <g id="g2836" fill="none" stroke-dasharray="none" stroke-linecap="round" stroke-linejoin="round" stroke-width="2.7">
      <path id="path2711" d="m128.3 168.8-.7-7.7 24.3-15.6 4.4-10.6 6.7-19.7"/>
      <path id="path2713" d="m155.8 136.2 16.5 6.6-12.2 16 3.9 3.2"/>
      <path id="path2715" d="m160.8 121-15.7-8-8.3 11.2"/>
      <path id="path2717" d="m161.6 119.8 8 10 9.6-8.7"/>
      <path id="path2725" d="M159.7 107.8c.2.4-.3 1.7 0 2.1l.1.1v.4h.1c.2.2.1.4.3.5l.4.3.6 1.4c.3.6 0-.1.3.2v.2l1.1 1h2.5c.5 0 4-.9 4.3-1.3l.3-.3h.4c.3-.1.1-.1.3-.3l1.5-1c.2 0 .3-.4.5-.6l.3-.1c.2-.2.2-.5.2-.6.2-.3.5-.5.6-.8v-.3l.1-.1.7-1.5v-.5c.2-.3 0-1.8 0-2.2V101c0-.4.2-1 0-1.4 0-.3-.1-.5-.3-.8v-.4c-.2-.4-1-1.3-1.4-1.4h-.3l-.2-.4-.8-.5-1-.1-.4-.4h-.2l-.8-.2h-1a7 7 0 0 0-3.2 0c-.3 0-.5.3-.7.4h-.3l-.2.2c-3.1 1.4-.3-.2-1.1.7l-.6.1v.1c0 .2-.2 0-.3.3-.4.5-.9 1-1 1.5v.3c0 .3-.3 0-.3.1-.2.4 0 1-.2 1.3a6 6 0 0 0-.5 2v.6l-.1.2v3.9l.3.7z"/>
    </g>
    <g id="g2829">
      <path id="path1969" fill="none" stroke-dasharray="none" stroke-linecap="round" stroke-linejoin="round" stroke-width="2.7" d="M67 107 43.9 119"/>
      <path id="path2813" fill="#000" fill-opacity="1" stroke-linecap="butt" stroke-linejoin="miter" stroke-width=".3" d="M44 119s-4.8-5.3 3.3-8.7c8.1-3.5 10.5.6 11 1.2S44 119 44 119z"/>
    </g>
    <g id="g2825">
      <path id="path1981" fill="none" stroke-dasharray="none" stroke-linecap="round" stroke-linejoin="round" stroke-width="2.7" d="m89.3 109.7 25.5-6"/>
      <path id="path2815" fill="#000" fill-opacity="1" stroke-linecap="butt" stroke-linejoin="miter" stroke-width=".3" d="M99.3 107.4s-.7-5.5 4.8-6.9c5.5-1.3 8.5 2.2 8.6 3.5 0 1.3-13.4 3.4-13.4 3.4z"/>
    </g>
    <g id="g2821">
      <path id="path2719" fill="none" stroke-dasharray="none" stroke-linecap="round" stroke-linejoin="round" stroke-width="2.7" d="m149.6 107.4 25.5-9.3"/>
      <path id="path2817" fill="#000" fill-opacity="1" stroke-linecap="butt" stroke-linejoin="miter" stroke-width=".3" d="M159.4 103.6s-1-6.7 4-8c5.2-1.3 9-.4 10.3 2.8 1.4 3.3-14.3 5.2-14.3 5.2z"/>
    </g>
  </g>
  <metadata id="metadata3017"/>
</svg>
