<?xml version="1.0" encoding="UTF-8" standalone="no"?>
<!-- Created with Inkscape (http://www.inkscape.org/) -->

<svg
   width="612"
   height="332"
   viewBox="0 0 161.99935 87.882"
   version="1.1"
   id="svg5"
   xml:space="preserve"
   inkscape:version="1.2.2 (b0a8486541, 2022-12-01)"
   sodipodi:docname="runners.svg"
   xmlns:inkscape="http://www.inkscape.org/namespaces/inkscape"
   xmlns:sodipodi="http://sodipodi.sourceforge.net/DTD/sodipodi-0.dtd"
   xmlns="http://www.w3.org/2000/svg"
   xmlns:svg="http://www.w3.org/2000/svg"
   xmlns:rdf="http://www.w3.org/1999/02/22-rdf-syntax-ns#"
   xmlns:cc="http://creativecommons.org/ns#"
   xmlns:dc="http://purl.org/dc/elements/1.1/"><title
     id="title3019">runners</title><sodipodi:namedview
     id="namedview7"
     pagecolor="#ffffff"
     bordercolor="#000000"
     borderopacity="0.25"
     inkscape:showpageshadow="2"
     inkscape:pageopacity="0.0"
     inkscape:pagecheckerboard="0"
     inkscape:deskcolor="#d1d1d1"
     inkscape:document-units="px"
     showgrid="false"
     showborder="true"
     inkscape:zoom="0.70710678"
     inkscape:cx="342.94679"
     inkscape:cy="214.25335"
     inkscape:window-width="1854"
     inkscape:window-height="1011"
     inkscape:window-x="0"
     inkscape:window-y="0"
     inkscape:window-maximized="1"
     inkscape:current-layer="layer2" /><defs
     id="defs2" /><g
     inkscape:groupmode="layer"
     id="layer2"
     inkscape:label="Layer 2"
     transform="matrix(1.0055096,0,0,1.0055096,-20.652435,-94.328858)"
     style="display:inline;stroke-width:2.68521;stroke-dasharray:none"><g
       id="g3015"
       inkscape:label="left guy"><path
         style="fill:none;stroke:#000000;stroke-width:2.68521;stroke-linecap:round;stroke-linejoin:round;stroke-dasharray:none;stroke-opacity:1"
         d="m 21.881877,178.183 0.01995,-7.55653 12.177205,-7.86616 13.194006,-13.36839 3.172328,-23.38639"
         id="path1903" /><path
         style="fill:none;stroke:#000000;stroke-width:2.68521;stroke-linecap:round;stroke-linejoin:round;stroke-dasharray:none;stroke-opacity:1"
         d="m 39.82144,142.61793 0.0066,-9.47042 10.360861,-3.8566"
         id="path1905" /><path
         style="fill:none;stroke:#000000;stroke-width:2.68521;stroke-linecap:round;stroke-linejoin:round;stroke-dasharray:none;stroke-opacity:1"
         d="m 49.432262,139.03918 13.605603,-1.68629 0.979112,-2.36908"
         id="path1907" /><path
         style="fill:none;stroke:#000000;stroke-width:2.68521;stroke-linecap:round;stroke-linejoin:round;stroke-dasharray:none;stroke-opacity:1"
         d="m 48.556603,149.26407 9.992862,6.08307 -5.90128,14.7096 5.485249,2.97798"
         id="path1909" /><path
         style="fill:none;stroke:#000000;stroke-width:2.68521;stroke-linecap:butt;stroke-linejoin:round;stroke-dasharray:none;stroke-opacity:1"
         d="m 45.427137,121.15061 c 0.08138,0.14646 1.504755,2.27693 1.723237,2.36834 0.19953,0.0835 0.502639,0.14129 0.684271,0.32293 0.04407,0.0441 -0.02765,0.1311 0,0.18695 0.03812,0.077 0.665374,0.53765 0.752993,0.56678 0.539853,0.17948 3.25819,0.44628 4.029512,0.18917 0.0846,-0.0282 0.104605,-0.16087 0.189172,-0.18917 0.23849,-0.0798 0.515887,0.0795 0.754469,0 0.458793,-0.15293 0.935014,-0.49723 1.324206,-0.75669 0.131746,-0.0878 0.418076,-0.11637 0.566039,-0.18843 0.429802,-0.20933 0.741124,-0.83683 1.126902,-1.12617 0.185764,-0.13932 0.449779,-0.14554 0.566037,-0.3776 0.05495,-0.10968 -0.05529,-0.25851 0,-0.368 0.111699,-0.22119 0.26276,-0.34564 0.375388,-0.56604 0.04854,-0.095 -0.07974,-0.24914 0,-0.31997 0.103613,-0.092 0.2945,-0.0731 0.370215,-0.18917 0.142709,-0.21876 0.303816,-1.8042 0.376868,-2.09641 -0.344496,-0.79326 0.297383,-0.21907 0.376864,-0.37834 0.05598,-0.11218 -0.04004,-0.25732 0,-0.37613 0.09602,-0.28491 0.402601,-0.617 0.548304,-0.9067 0.158565,-0.31527 0.185074,-0.73687 0.338442,-1.04488 0.102571,-0.20599 0.0095,-3.44567 -0.182523,-3.64008 -0.04154,-0.042 -0.118232,0 -0.177347,0 -0.06306,-0.0591 -0.140529,-0.1059 -0.189172,-0.17734 -0.118922,-0.17467 -0.159126,-0.45791 -0.378344,-0.56752 -0.09879,-0.0494 -0.671957,-0.12964 -0.722696,-0.1877 -0.03987,-0.0456 0.02753,-0.1278 0,-0.18178 -0.406749,-0.79754 0.02373,0.21443 -0.377605,-0.18769 -0.0993,-0.0995 -0.0884,-0.27812 -0.187696,-0.37761 -0.09199,-0.0922 -1.119494,-0.61738 -1.302035,-0.70865 -0.302972,-0.15149 -0.456362,-0.59601 -0.755949,-0.75447 -0.08073,-0.0427 -3.306935,-0.0305 -3.36667,0 -0.07913,0.0404 -0.103444,0.16101 -0.187693,0.18917 -0.376896,0.12596 -1.063294,-0.19304 -1.409184,0 -0.348043,0.19424 -0.69011,0.22476 -1.105474,0.35839 -0.156776,0.0504 -0.411464,-0.0728 -0.557908,0 -0.325866,0.16197 -0.815816,0.5823 -1.077394,0.71309 -1.247534,0.62377 -2.422213,1.27687 -3.340068,2.39495 -0.173085,0.21084 -0.185455,0.53276 -0.378344,0.72565 -0.0997,0.0997 -0.293743,0.0764 -0.378343,0.18917 -0.464995,0.61999 -0.567516,1.64876 -0.567516,2.39347 0,0.78583 0.263134,0.632 0.55643,1.22814 0.162771,0.33083 -0.274971,0.0683 0.188433,0.3776 0.117274,0.0783 0.278448,0.0897 0.378344,0.18918 0.04433,0.0442 -0.04424,0.14345 0,0.18769 0.389985,0.38998 -0.01778,-0.6001 0.376867,0.18917 0.04009,0.0802 -0.06643,0.41462 0,0.47589 0.135538,0.125 0.207346,0.25652 0.320704,0.49657 0.355478,0.75278 -0.02895,-0.18117 0.340659,0.18844 0.0418,0.0418 -0.01876,0.12129 0,0.17735 0.3502,1.04628 0.349972,0.075 0.377605,1.55845 z"
         id="path1967" /></g><g
       id="g3008"
       inkscape:label="middle guy"><path
         style="fill:none;stroke:#000000;stroke-width:2.68521;stroke-linecap:round;stroke-linejoin:round;stroke-dasharray:none;stroke-opacity:1"
         d="m 73.910819,148.35738 3.81078,-4.60146 12.315391,9.17262 6.006949,-8.97828 7.625261,-25.60102"
         id="path1971" /><path
         style="fill:none;stroke:#000000;stroke-width:2.68521;stroke-linecap:round;stroke-linejoin:round;stroke-dasharray:none;stroke-opacity:1"
         d="m 96.745207,144.62715 11.226173,7.12572 -6.51904,19.46919 7.14567,2.52427"
         id="path1973" /><path
         style="fill:none;stroke:#000000;stroke-width:2.68521;stroke-linecap:round;stroke-linejoin:round;stroke-dasharray:none;stroke-opacity:1"
         d="m 102.1536,123.19972 -13.78812,7.16711 14.99557,9.41057"
         id="path1975" /><path
         style="fill:none;stroke:#000000;stroke-width:2.68521;stroke-linecap:round;stroke-linejoin:round;stroke-dasharray:none;stroke-opacity:1"
         d="m 115.94764,133.48891 -4.34209,2.28853 -8.99306,-11.8831"
         id="path1977" /><path
         style="fill:none;stroke:#000000;stroke-width:2.68521;stroke-linecap:butt;stroke-linejoin:round;stroke-dasharray:none;stroke-opacity:1"
         d="m 99.066997,113.19947 c 0.05648,1.09285 0.285909,1.38274 0.908174,2.21243 0.226379,0.30184 0.228979,0.71383 0.369479,0.99537 0.14429,0.28916 0.56647,0.21011 0.74117,0.552 0.0517,0.10111 -0.10453,0.2963 0,0.34065 0.20311,0.0862 0.63343,-0.11381 0.82984,0 0.7381,0.42771 1.44092,0.53648 2.34618,0.53648 0.29908,0 1.71128,-0.14174 1.75871,-0.18917 0.0992,-0.0992 0.0907,-0.27611 0.18917,-0.37612 0.0719,-0.073 0.39055,0.049 0.48475,0 0.36839,-0.19179 0.74728,-0.43137 1.12025,-0.5557 0.11965,-0.0399 0.256,0.0306 0.37835,0 0.34225,0.11362 0.35191,-0.30619 0.56751,-0.37834 0.1189,-0.0398 0.25723,0.0398 0.37613,0 0.15763,-0.0528 0.33484,-0.27889 0.50101,-0.32292 0.11953,-0.0317 0.26055,0.0557 0.37095,0 0.15893,-0.0802 0.22953,-0.27883 0.37761,-0.37761 0.10286,-0.0686 0.2758,0.079 0.37095,0 0.25446,-0.21118 0.002,-0.73189 0.11971,-0.99611 0.0732,-0.16473 0.34222,-0.23327 0.42195,-0.37612 0.0307,-0.0551 -0.0444,-0.14441 0,-0.18918 0.0441,-0.0444 0.14293,0.0437 0.18769,0 0.37429,-0.36545 -0.53889,-0.004 0.16331,-0.3643 0.0561,-0.0288 0.1445,0.0445 0.18917,0 0.0246,-0.0245 -0.0197,-0.29697 0,-0.33918 0.0635,-0.13631 0.52057,-0.41168 0.64067,-0.65988 0.141,-0.2914 0.4437,-1.13703 0.55865,-1.48235 0.039,-0.11708 -0.0571,-0.26078 0,-0.37021 0.3861,-0.74052 0.68395,-2.3869 0.18918,-3.34746 -0.16967,-0.32939 0,-1.27451 0,-1.61535 0,-0.40969 -0.27194,-1.2787 -0.37687,-1.69885 -0.0457,-0.18306 0.13341,-0.43262 0,-0.56604 -0.0442,-0.0442 -0.14284,0.0436 -0.18769,0 -0.0187,-0.0182 0.0165,-0.313 0,-0.34287 -0.0924,-0.1679 -0.24342,-0.46668 -0.32071,-0.54239 -0.21461,-0.21024 -0.78121,-0.18666 -1.05818,-0.32515 -0.15548,-0.0777 -0.21246,-0.29263 -0.36874,-0.36873 -0.41534,-0.20226 -0.8445,-0.44063 -1.29169,-0.67097 -1.00013,-0.51516 -3.79054,-1.00499 -5.07365,-0.74634 -0.18917,0.0631 -0.37834,0.12611 -0.56752,0.18917 -0.0631,0.0631 -0.10457,0.16097 -0.18917,0.18917 -0.44958,0.14986 -1.0716,0.0844 -1.51338,0.37834 -0.0523,0.0348 0.0443,0.14394 0,0.18844 -0.0761,0.0764 -0.44473,0.13383 -0.5579,0.18917 -0.34355,0.168 -0.0342,0.37817 -0.36874,0.54978 -0.0561,0.0288 -0.16044,-0.0561 -0.18917,0 -0.0561,0.10963 0.0559,0.25976 0,0.36948 -0.0285,0.056 -0.14402,-0.0444 -0.18844,0 -0.73417,0.73417 0.0439,0.10131 -0.18843,0.56603 -0.22105,0.4421 -0.54041,0.70247 -0.75669,1.13504 -0.11282,0.22564 -0.231827,0.79105 -0.376864,0.94512 -0.04069,0.0432 -0.136112,-0.042 -0.178088,0 -0.0685,0.0685 -0.149688,1.08023 -0.189172,1.27765 -0.129873,0.64936 -0.679992,3.14119 -0.376126,3.76127 0.355899,0.72627 0.332803,2.04039 0.156657,2.82575 z"
         id="path1979" /></g><g
       id="g2836"
       inkscape:label="right guy"><path
         style="fill:none;stroke:#000000;stroke-width:2.68521;stroke-linecap:round;stroke-linejoin:round;stroke-dasharray:none;stroke-opacity:1"
         d="m 128.31046,168.83756 -0.66863,-7.7609 24.23501,-15.58552 4.4003,-10.63173 6.69089,-19.6348"
         id="path2711" /><path
         style="fill:none;stroke:#000000;stroke-width:2.68521;stroke-linecap:round;stroke-linejoin:round;stroke-dasharray:none;stroke-opacity:1"
         d="m 155.77914,136.23469 16.48747,6.60507 -12.14063,16.03727 3.83342,3.07486"
         id="path2713" /><path
         style="fill:none;stroke:#000000;stroke-width:2.68521;stroke-linecap:round;stroke-linejoin:round;stroke-dasharray:none;stroke-opacity:1"
         d="m 160.80745,121.02434 -15.70321,-7.95414 -8.3252,11.09838"
         id="path2715" /><path
         style="fill:none;stroke:#000000;stroke-width:2.68521;stroke-linecap:round;stroke-linejoin:round;stroke-dasharray:none;stroke-opacity:1"
         d="m 161.62512,119.83767 8.01684,9.91068 9.58947,-8.61146"
         id="path2717" /><path
         style="fill:none;stroke:#000000;stroke-width:2.68521;stroke-linecap:round;stroke-linejoin:round;stroke-dasharray:none;stroke-opacity:1"
         d="m 159.67166,107.77515 c 0.21718,0.39776 -0.22446,1.74945 0,2.13437 0.0302,0.0518 0.11221,0.066 0.13157,0.12283 0.0412,0.1208 -0.0903,0.29263 0,0.38288 0.0282,0.0282 0.0922,-0.0289 0.11975,0 0.13546,0.14183 0.12444,0.38758 0.26313,0.52626 0.079,0.079 0.29105,0.10766 0.3947,0.26314 0.25648,0.38472 0.44963,1.00949 0.65218,1.42719 0.2622,0.54073 -0.0125,-0.13127 0.24926,0.13157 0.002,0.002 -0.002,0.2402 0,0.24617 0.0517,0.13578 1.05909,1.0104 1.12037,1.02992 0.31584,0.1006 2.1441,0.0565 2.53986,0 0.45335,-0.0648 3.89983,-0.9339 4.27438,-1.29305 0.1095,-0.10501 0.13122,-0.29537 0.2621,-0.37209 0.10715,-0.0628 0.25098,0.0252 0.3726,0 0.34584,-0.0716 0.17657,-0.11771 0.3947,-0.26313 0.4747,-0.31647 0.98903,-0.57732 1.44724,-0.92097 0.2393,-0.17948 0.33643,-0.468 0.52627,-0.65783 0.0693,-0.0694 0.19379,-0.0622 0.26313,-0.13157 0.20786,-0.20786 0.19231,-0.54283 0.26313,-0.65013 0.17674,-0.26777 0.43434,-0.4525 0.51856,-0.7894 0.0213,-0.0851 -0.0277,-0.17992 0,-0.26313 0.0196,-0.0588 0.10383,-0.0761 0.13157,-0.13157 0.23088,-0.46177 0.49431,-0.95858 0.65783,-1.44723 0.0138,-0.0411 0,-0.0867 0,-0.13003 0,-0.0788 -0.0265,-0.16221 0,-0.23641 0.0209,-0.0584 0.10335,-0.0763 0.13157,-0.13157 0.14404,-0.28189 0,-1.81888 0,-2.23406 0,-1.11678 0,-2.23355 0,-3.35033 0,-0.4243 0.10296,-1.02097 0,-1.432841 -0.0762,-0.304998 -0.23418,-0.476017 -0.37209,-0.762164 -0.0623,-0.129251 0.0659,-0.354906 0,-0.482068 -0.16803,-0.324207 -1.03659,-1.223548 -1.42976,-1.350615 -0.0835,-0.02697 -0.18468,0.03923 -0.26314,0 -0.0161,-0.0081 -0.14978,-0.337066 -0.25953,-0.391616 -0.24041,-0.119497 -0.4955,-0.375721 -0.75137,-0.503656 -0.32389,-0.161941 -0.63615,0.02718 -0.97133,-0.122315 -0.17807,-0.07942 -0.31768,-0.257561 -0.4831,-0.346392 -0.056,-0.03007 -0.13085,0.02147 -0.19067,0 -0.28477,-0.102246 -0.50538,-0.140929 -0.74931,-0.263134 -0.25972,-0.130111 -0.72739,0.07062 -1.00988,0 -0.87815,-0.219537 -2.36458,-0.295346 -3.25063,0 -0.2308,0.07694 -0.42673,0.316313 -0.65732,0.394188 -0.0815,0.02752 -0.17649,-0.02745 -0.25799,0 -0.11732,0.03952 -0.14976,0.211738 -0.26262,0.26262 -3.10772,1.401042 -0.26352,-0.219056 -1.11832,0.635733 -0.16331,0.163312 -0.42355,0.03439 -0.52112,0.131567 -0.0297,0.02962 0.019,0.08848 0,0.125915 -0.11007,0.217093 -0.23763,0.05765 -0.37209,0.256452 -0.33254,0.491671 -0.86235,1.029897 -1.03095,1.552078 -0.0268,0.08314 0.0277,0.179241 0,0.262105 0.0504,0.287286 -0.21815,0.04416 -0.26159,0.131566 -0.16253,0.326973 0.032,0.938647 -0.13054,1.266327 -0.27939,0.56322 -0.44229,1.25477 -0.5237,1.94678 -0.0239,0.20331 0.0304,0.4117 0,0.61415 -0.0145,0.097 -0.10778,0.168 -0.13157,0.26313 -0.0488,0.19506 -0.0864,3.58418 0,3.86838 0.0717,0.23569 0.18982,0.45466 0.28472,0.68198 z"
         id="path2725" /></g><g
       id="g2829"
       inkscape:label="left cap"><path
         style="fill:none;stroke:#000000;stroke-width:2.68521;stroke-linecap:round;stroke-linejoin:round;stroke-dasharray:none;stroke-opacity:1"
         d="M 66.960607,106.91411 43.895666,119.11718"
         id="path1969" /><path
         style="fill:#000000;fill-opacity:1;stroke:#000000;stroke-width:0.263134px;stroke-linecap:butt;stroke-linejoin:miter;stroke-opacity:1"
         d="m 43.969013,118.97269 c 0,0 -4.740622,-5.23849 3.360045,-8.6912 8.10067,-3.45272 10.427918,0.59525 10.928327,1.22104 0.500409,0.62578 -14.288372,7.47016 -14.288372,7.47016 z"
         id="path2813" /></g><g
       id="g2825"
       inkscape:label="middle cap"><path
         style="fill:none;stroke:#000000;stroke-width:2.68521;stroke-linecap:round;stroke-linejoin:round;stroke-dasharray:none;stroke-opacity:1"
         d="m 89.272913,109.73009 25.570727,-6.02542"
         id="path1981" /><path
         style="fill:#000000;fill-opacity:1;stroke:#000000;stroke-width:0.263134px;stroke-linecap:butt;stroke-linejoin:miter;stroke-opacity:1"
         d="m 99.308013,107.35426 c 0,0 -0.755519,-5.44491 4.783147,-6.8164 5.53865,-1.371488 8.47933,2.13356 8.57236,3.43309 0.093,1.29954 -13.355507,3.38331 -13.355507,3.38331 z"
         id="path2815" /></g><g
       id="g2821"
       inkscape:label="right cap"><path
         style="fill:none;stroke:#000000;stroke-width:2.68521;stroke-linecap:round;stroke-linejoin:round;stroke-dasharray:none;stroke-opacity:1"
         d="m 149.64689,107.40667 25.42836,-9.293964"
         id="path2719" /><path
         style="fill:#000000;fill-opacity:1;stroke:#000000;stroke-width:0.263134px;stroke-linecap:butt;stroke-linejoin:miter;stroke-opacity:1"
         d="m 159.39781,103.6021 c 0,0 -1.03243,-6.71101 4.08141,-7.994194 5.11384,-1.283184 8.8809,-0.409194 10.2364,2.838922 1.3555,3.248122 -14.31781,5.155272 -14.31781,5.155272 z"
         id="path2817" /></g></g><metadata
     id="metadata3017"><rdf:RDF><cc:License
         rdf:about="http://creativecommons.org/licenses/by-sa/4.0/"><cc:permits
           rdf:resource="http://creativecommons.org/ns#Reproduction" /><cc:permits
           rdf:resource="http://creativecommons.org/ns#Distribution" /><cc:requires
           rdf:resource="http://creativecommons.org/ns#Notice" /><cc:requires
           rdf:resource="http://creativecommons.org/ns#Attribution" /><cc:permits
           rdf:resource="http://creativecommons.org/ns#DerivativeWorks" /><cc:requires
           rdf:resource="http://creativecommons.org/ns#ShareAlike" /></cc:License><cc:Work
         rdf:about=""><cc:license
           rdf:resource="http://creativecommons.org/licenses/by-sa/4.0/" /><dc:title>runners</dc:title></cc:Work></rdf:RDF></metadata></svg>
